<svg width="512" height="512" viewBox="0 0 512 512" fill="none" xmlns="http://www.w3.org/2000/svg">
<path d="M412.907 395.477C426.648 374.809 439.865 353.796 452.544 332.459C454.252 329.488 455.038 326.076 454.803 322.658C454.567 319.239 453.321 315.967 451.221 313.259C440.213 298.645 419.136 268.992 407.658 241.536C395.861 213.355 394.09 169.536 394.005 148.16C394.024 140.051 391.337 132.168 386.368 125.76L318.144 39.0614C317.887 42.9571 317.345 46.8289 316.522 50.6454C314.261 61.376 309.973 72.064 305.088 82.6454C302.229 88.832 298.901 95.4454 295.573 102.144L288.96 115.499C277.952 138.283 267.69 163.008 264.81 192.085C262.165 218.965 265.792 250.325 282.197 287.68C284.928 287.915 287.68 288.213 290.432 288.619C316.712 292.161 341.379 303.322 361.387 320.725C380.928 337.579 398.592 361.728 412.907 395.392V395.477ZM174.912 481.472C176.469 481.728 178.026 481.899 179.605 481.899C196.245 482.411 224.298 483.861 247.018 488.085C265.578 491.499 302.336 501.739 332.565 510.592C355.669 517.333 379.456 498.901 382.805 475.093C385.237 457.728 389.845 438.08 398.272 420.053L398.059 420.16C383.765 380.267 365.589 354.496 346.517 338.048C329.819 323.492 309.21 314.166 287.253 311.232C254.4 306.624 224.277 315.285 205.333 320.832C216.682 368.149 213.184 423.851 174.933 481.493L174.912 481.472ZM118.037 212.011C117.546 214.144 116.842 216.213 115.946 218.197L60.1598 342.592C57.3596 348.837 56.4989 355.779 57.6895 362.519C58.88 369.259 62.0668 375.487 66.8372 380.395L154.645 470.848C199.509 404.693 192.96 342.421 172.48 293.781C156.949 256.875 133.397 228.053 118.08 212.053L118.037 212.011ZM198.826 298.88C211.946 294.976 233.088 288.96 257.386 287.488C242.816 250.688 239.296 218.517 242.112 189.845C245.397 156.736 257.045 129.109 268.458 105.579C270.869 100.565 273.216 95.8934 275.456 91.4134C278.634 85.0774 281.6 79.104 284.394 73.0667C289.024 63.04 292.48 54.1867 294.208 45.9734C295.914 37.8667 295.914 30.6134 293.909 23.7227C291.882 16.7894 287.573 9.32271 279.402 1.10937C273.932 -0.316546 268.192 -0.361267 262.7 0.979228C257.208 2.31972 252.135 5.00345 247.936 8.78937L142.336 103.765C136.444 109.062 132.576 116.241 131.392 124.075L122.282 184.448C136.618 197.035 171.947 233.856 193.429 284.949C195.349 289.429 197.162 294.123 198.826 298.88Z" fill="#3F3F3F"/>
</svg>
